<?xml version="1.0" standalone="no"?><!DOCTYPE svg PUBLIC "-//W3C//DTD SVG 1.1//EN" "http://www.w3.org/Graphics/SVG/1.1/DTD/svg11.dtd"><svg t="1673776659221" class="icon" viewBox="0 0 1024 1024" version="1.1" xmlns="http://www.w3.org/2000/svg" p-id="8029" xmlns:xlink="http://www.w3.org/1999/xlink" width="200" height="200"><path d="M510.142 63.699c-246.67 0-447.383 200.666-447.383 447.342 0 246.686 200.712 447.352 447.383 447.352S957.526 757.72 957.526 511.04c0-246.677-200.713-447.342-447.384-447.342z m0 846.7c-220.211 0-399.36-179.153-399.36-399.359 0-220.197 179.149-399.335 399.36-399.335 220.21 0 399.356 179.138 399.356 399.335 0 220.206-179.145 399.36-399.356 399.36z" fill="#ddd540" p-id="8030"></path><path d="M643.716 347.417H376.375L510.073 453.92z" fill="#ddd540" p-id="8031"></path><path d="M510.142 153.62c-197.927 0-358.378 160.452-358.378 358.379s160.451 358.38 358.378 358.38c197.928 0 358.38-160.452 358.38-358.379S708.07 153.62 510.141 153.62z m213.081 172.301c0 52.875-188.658 154.152-194.748 193.78-6.088 39.63 188.66 132.107 188.66 189.35v74.87H303.154v-74.87c0-57.243 194.75-149.721 188.66-189.35-6.09-39.628-194.752-140.904-194.752-193.78v-83.655h426.161v83.655z" fill="#ddd540" p-id="8032"></path><path d="M376.419 696.101h267.36L510.073 589.568z" fill="#ddd540" p-id="8033"></path></svg>