<svg xmlns="http://www.w3.org/2000/svg" width="20" height="20" viewBox="0 0 20 20">
  <g id="组_130" data-name="组 130" transform="translate(-164 -134.712)">
    <circle id="椭圆_27" data-name="椭圆 27" cx="10" cy="10" r="10" transform="translate(164 134.712)" fill="#e7b258"/>
    <path id="路径_60" data-name="路径 60" d="M133.4,85.886l.682,1.28h1.736a1.632,1.632,0,0,1,1.563,1.693v.564a1.088,1.088,0,0,1,1.042,1.129V92.81a1.088,1.088,0,0,1-1.042,1.129V94.5a1.632,1.632,0,0,1-1.563,1.693h-6.252A1.632,1.632,0,0,1,128,94.5V88.859a1.673,1.673,0,0,1,1.189-1.644l2.785-1.742A1,1,0,0,1,133.4,85.886Zm2.417,2.409h-6.252a.544.544,0,0,0-.521.564V94.5a.544.544,0,0,0,.521.564h6.252a.544.544,0,0,0,.521-.564v-.564h-2.6a2.265,2.265,0,0,1,0-4.515h2.605v-.564a.544.544,0,0,0-.521-.564Zm1.563,2.258h-3.647a1.132,1.132,0,0,0,0,2.258h3.647Zm-3.647.564a.566.566,0,1,1-.521.564A.544.544,0,0,1,133.731,91.117ZM132.5,86.45l-1.144.716h1.526Z" transform="translate(40.452 54.13)" fill="#fff"/>
  </g>
</svg>
