<svg xmlns="http://www.w3.org/2000/svg" width="38" height="38" viewBox="0 0 38 38">
  <g id="组_236" data-name="组 236" transform="translate(136 -647)">
    <circle id="椭圆_2" data-name="椭圆 2" cx="19" cy="19" r="19" transform="translate(-136 647)" fill="#e26e59"/>
    <path id="路径_11" data-name="路径 11" d="M82.585,113.963a.524.524,0,0,0-.523-.524H79.937a12.291,12.291,0,0,0-.975-1.392,7.906,7.906,0,0,0-5.977-3.3,7.905,7.905,0,0,0-5.977,3.3,12.283,12.283,0,0,0-.975,1.392H63.959a.523.523,0,0,0-.523.524c0,3.932.423,7.792,4.426,9.452l-.069,1.959a.524.524,0,0,0,.524.542H77.4a.524.524,0,0,0,.523-.542l-.064-1.841C82.14,121.946,82.585,117.992,82.585,113.963Zm-9.6-4.17c2.24,0,4.32,1.657,5.693,3.647H67.292C68.664,111.449,70.745,109.792,72.985,109.792Zm3.869,15.076h-8l.038-1.1a15.267,15.267,0,0,0,4.114.491,15.754,15.754,0,0,0,3.808-.413Zm-3.844-1.653c-6.958,0-8.443-3.063-8.525-8.729H81.535C81.453,120.152,79.968,123.215,73.01,123.215Zm1.012-11.465.958.479a.479.479,0,1,0,.428-.857l-.958-.479a.479.479,0,0,0-.428.857Zm-3.2.375a.475.475,0,0,0,.268-.082l.756-.512a.479.479,0,0,0-.538-.793l-.756.513a.479.479,0,0,0,.269.875Z" transform="translate(-190.435 548.255)" fill="#fff"/>
  </g>
</svg>
