<svg xmlns="http://www.w3.org/2000/svg" width="56" height="56" viewBox="0 0 56 56">
  <g id="组_133" data-name="组 133" transform="translate(0 -2.96)">
    <path id="路径_62" data-name="路径 62" d="M303.82,341.826a1.65,1.65,0,1,0,0,3.246,1.534,1.534,0,0,0,1.623-1.623A1.513,1.513,0,0,0,303.82,341.826Zm13.188,9.414a1.391,1.391,0,0,0-1.258,1.3,1.359,1.359,0,0,0,1.258,1.3,1.331,1.331,0,1,0,0-2.6Zm-4.18-6.168a1.555,1.555,0,0,0,1.623-1.623,1.534,1.534,0,0,0-1.623-1.623,1.65,1.65,0,1,0,0,3.246Zm11.241,6.168a1.391,1.391,0,0,0-1.258,1.3,1.359,1.359,0,0,0,1.258,1.3,1.331,1.331,0,1,0,0-2.6Z" transform="translate(-285.316 -320.281)" fill="#28c445"/>
    <path id="路径_63" data-name="路径 63" d="M28,2.96a28,28,0,1,0,28,28,28,28,0,0,0-28-28ZM22.684,38.142a18.285,18.285,0,0,1-4.464-.69l-4.464,2.272,1.258-3.936c-3.206-2.272-5.154-5.235-5.154-8.765,0-6.209,5.8-11.078,12.823-11.078,6.29,0,11.849,3.9,12.945,9.13-.406-.041-.812-.081-1.217-.081-6.087.081-10.875,4.667-10.875,10.348a10.253,10.253,0,0,0,.406,2.719c-.406.041-.852.081-1.258.081Zm18.991,4.545.974,3.246-3.49-1.948a15.646,15.646,0,0,1-3.855.649c-6.128,0-10.957-4.22-10.957-9.455-.041-5.194,4.788-9.415,10.875-9.415,5.8,0,10.916,4.261,10.916,9.455,0,2.922-1.907,5.519-4.464,7.467Z" transform="translate(0 0)" fill="#28c445"/>
  </g>
</svg>
