<svg xmlns="http://www.w3.org/2000/svg" width="17.5" height="17.5" viewBox="0 0 17.5 17.5">
  <path id="路径_5" data-name="路径 5" d="M75.611,66.862a8.75,8.75,0,1,0,8.75,8.75A8.76,8.76,0,0,0,75.611,66.862Zm-4.922,7.1c0,.946,1.677,1.553,3.828,1.636a3.239,3.239,0,0,0-.746,1.161c-1.778-.229-3.083-.926-3.083-1.759V73.958Zm0,1.846c0,.81,1.229,1.37,2.929,1.569a3,3,0,0,0-.046.392,2.892,2.892,0,0,0,.134.828c-1.744-.237-3.016-.927-3.016-1.751V75.8Zm4.324,4.73a6.2,6.2,0,0,1-3.939-1.084,1.054,1.054,0,0,1-.385-.762V77.65c0,.869,1.411,1.454,3.307,1.609.037.064.078.129.12.191a3.607,3.607,0,0,0,1.136,1.075C75.172,80.525,75.1,80.534,75.013,80.534Zm0-5.537c-2.387,0-4.324-.826-4.324-1.846v-.615c0-1.019,1.936-1.846,4.324-1.846s4.324.827,4.324,1.846v.615c0,.5-.467.948-1.218,1.28a4.755,4.755,0,0,0-.583-.049,4.425,4.425,0,0,0-2.253.6C75.191,74.988,75.1,75,75.013,75Zm4.937,3.29H75.575V77.41H79.95Z" transform="translate(-66.861 -66.862)" fill="#d7565e"/>
</svg>
