<svg xmlns="http://www.w3.org/2000/svg" width="17.5" height="17.5" viewBox="0 0 17.5 17.5">
  <g id="组_233" data-name="组 233" transform="translate(-250.261 -174.75)">
    <circle id="椭圆_17" data-name="椭圆 17" cx="8.75" cy="8.75" r="8.75" transform="translate(250.261 174.75)" fill="#0d0202"/>
    <path id="路径_6" data-name="路径 6" d="M171.641,73.687h-5.479a.823.823,0,0,1-.822-.822V65.194a.823.823,0,0,1,.822-.822h5.479a.823.823,0,0,1,.822.822v7.672a.823.823,0,0,1-.822.822Zm-5.479-8.767a.274.274,0,0,0-.274.274v7.672a.274.274,0,0,0,.274.274h5.479a.274.274,0,0,0,.274-.274V65.194a.274.274,0,0,0-.274-.274h-5.479Zm5.011,3.026h-4.542a.507.507,0,0,1-.493-.518V66.053a.506.506,0,0,1,.493-.518h4.542a.506.506,0,0,1,.493.518v1.376a.507.507,0,0,1-.493.518Zm-4.488-.548h4.433V66.083h-4.433V67.4Zm1.107,2.625a.219.219,0,0,1-.219.218h-.942a.219.219,0,0,1-.219-.218V69.08a.219.219,0,0,1,.219-.219h.942a.219.219,0,0,1,.219.219v.943Zm1.832,0a.219.219,0,0,1-.219.218h-.942a.219.219,0,0,1-.219-.218V69.08a.219.219,0,0,1,.219-.219h.942a.219.219,0,0,1,.219.219v.943Zm1.767,0a.219.219,0,0,1-.219.218h-.942a.219.219,0,0,1-.219-.218V69.08a.219.219,0,0,1,.219-.219h.942a.219.219,0,0,1,.219.219v.943Zm-3.6,2.076a.22.22,0,0,1-.219.219h-.942a.22.22,0,0,1-.219-.219v-.942a.219.219,0,0,1,.219-.219h.942a.219.219,0,0,1,.219.219V72.1Zm1.832,0a.219.219,0,0,1-.219.219h-.942a.219.219,0,0,1-.219-.219v-.942a.219.219,0,0,1,.219-.219h.942a.219.219,0,0,1,.219.219V72.1Zm1.767,0a.219.219,0,0,1-.219.219h-.942a.22.22,0,0,1-.219-.219v-.942a.219.219,0,0,1,.219-.219h.942a.219.219,0,0,1,.219.219V72.1Zm0,0" transform="translate(90.11 114.471)" fill="#f2ecec"/>
  </g>
</svg>
